<svg xmlns="http://www.w3.org/2000/svg" viewBox="0 0 30.69 14.03"><defs><style>.cls-1{fill:#517892;}.cls-2,.cls-3{fill:#e8daac;}.cls-2{opacity:0.8;}</style></defs><g id="Layer_2" data-name="Layer 2"><g id="Layer_1-2" data-name="Layer 1"><path class="cls-1" d="M14.2,14a1.19,1.19,0,0,1-1.11-1.26V.37a.14.14,0,0,1,.24-.09L21,9.19a1.15,1.15,0,0,0,1.8,0L30.44.29a.14.14,0,0,1,.25.09V12.77A1.19,1.19,0,0,1,29.58,14Z"/><path class="cls-2" d="M14.41,14h15c1.08,0,1.7-1,1.06-1.68L22.94,4.27a1.52,1.52,0,0,0-2.11,0l-7.48,8.08C12.71,13,13.33,14,14.41,14Z"/><path class="cls-3" d="M7.88,13V1.05c0-.86-.76-1.35-1.3-.84l-6.25,6a1.25,1.25,0,0,0,0,1.69l6.25,6C7.12,14.33,7.88,13.84,7.88,13Z"/></g></g></svg>