<svg id="Layer_1" data-name="Layer 1" xmlns="https://www.w3.org/2000/svg" viewBox="0 0 32 32"><defs><style>.cls-1{fill:#517892;}.cls-2,.cls-3{fill:#e8daac;}.cls-2{opacity:0.8;}</style></defs><path class="cls-1" d="M14.85,23a1.18,1.18,0,0,1-1.1-1.25V9.36A.14.14,0,0,1,14,9.27l7.69,8.9a1.14,1.14,0,0,0,1.79,0l7.63-8.9a.14.14,0,0,1,.24.09v12.4A1.18,1.18,0,0,1,30.23,23Z"/><path class="cls-2" d="M15.06,23H30c1.08,0,1.7-1,1-1.67L23.6,13.26a1.52,1.52,0,0,0-2.11,0L14,21.34C13.36,22,14,23,15.06,23Z"/><path class="cls-3" d="M8.54,22V10c0-.87-.76-1.36-1.3-.85L1,15.16a1.23,1.23,0,0,0,0,1.68l6.25,6C7.78,23.32,8.54,22.83,8.54,22Z"/></svg>